<mxfile host="app.diagrams.net" modified="2023-09-03T12:57:48.639Z" agent="Mozilla/5.0 (Windows NT 10.0; Win64; x64) AppleWebKit/537.36 (KHTML, like Gecko) Chrome/116.0.0.0 Safari/537.36" etag="Rm5tyouo8VankBFvZlyP" version="21.7.2" type="device">
  <diagram id="C5RBs43oDa-KdzZeNtuy" name="Page-1">
    <mxGraphModel dx="947" dy="871" grid="1" gridSize="10" guides="1" tooltips="1" connect="1" arrows="1" fold="1" page="1" pageScale="1" pageWidth="827" pageHeight="1169" math="0" shadow="0">
      <root>
        <mxCell id="WIyWlLk6GJQsqaUBKTNV-0" />
        <mxCell id="WIyWlLk6GJQsqaUBKTNV-1" parent="WIyWlLk6GJQsqaUBKTNV-0" />
        <mxCell id="WIyWlLk6GJQsqaUBKTNV-2" value="" style="rounded=0;html=1;jettySize=auto;orthogonalLoop=1;fontSize=11;endArrow=block;endFill=0;endSize=8;strokeWidth=1;shadow=0;labelBackgroundColor=none;edgeStyle=orthogonalEdgeStyle;" parent="WIyWlLk6GJQsqaUBKTNV-1" source="WIyWlLk6GJQsqaUBKTNV-3" edge="1">
          <mxGeometry relative="1" as="geometry">
            <mxPoint x="414" y="130" as="targetPoint" />
          </mxGeometry>
        </mxCell>
        <mxCell id="WIyWlLk6GJQsqaUBKTNV-3" value="START" style="rounded=1;whiteSpace=wrap;html=1;fontSize=12;glass=0;strokeWidth=1;shadow=0;" parent="WIyWlLk6GJQsqaUBKTNV-1" vertex="1">
          <mxGeometry x="354" y="40" width="120" height="40" as="geometry" />
        </mxCell>
        <mxCell id="gOO0u-Aua9ofZ5WGJMhY-0" value="Generate a random word" style="rounded=1;whiteSpace=wrap;html=1;" vertex="1" parent="WIyWlLk6GJQsqaUBKTNV-1">
          <mxGeometry x="354" y="130" width="120" height="60" as="geometry" />
        </mxCell>
        <mxCell id="gOO0u-Aua9ofZ5WGJMhY-2" value="Generate as many blanks as letters in word" style="rounded=1;whiteSpace=wrap;html=1;" vertex="1" parent="WIyWlLk6GJQsqaUBKTNV-1">
          <mxGeometry x="354" y="240" width="120" height="60" as="geometry" />
        </mxCell>
        <mxCell id="gOO0u-Aua9ofZ5WGJMhY-4" value="" style="endArrow=classic;html=1;rounded=0;exitX=0.5;exitY=1;exitDx=0;exitDy=0;entryX=0.5;entryY=0;entryDx=0;entryDy=0;" edge="1" parent="WIyWlLk6GJQsqaUBKTNV-1" source="gOO0u-Aua9ofZ5WGJMhY-0" target="gOO0u-Aua9ofZ5WGJMhY-2">
          <mxGeometry width="50" height="50" relative="1" as="geometry">
            <mxPoint x="584" y="430" as="sourcePoint" />
            <mxPoint x="634" y="380" as="targetPoint" />
          </mxGeometry>
        </mxCell>
        <mxCell id="gOO0u-Aua9ofZ5WGJMhY-5" value="Ask the user to guess a letter" style="rounded=1;whiteSpace=wrap;html=1;" vertex="1" parent="WIyWlLk6GJQsqaUBKTNV-1">
          <mxGeometry x="354" y="350" width="120" height="60" as="geometry" />
        </mxCell>
        <mxCell id="gOO0u-Aua9ofZ5WGJMhY-6" value="" style="endArrow=classic;html=1;rounded=0;exitX=0.5;exitY=1;exitDx=0;exitDy=0;entryX=0.5;entryY=0;entryDx=0;entryDy=0;" edge="1" parent="WIyWlLk6GJQsqaUBKTNV-1" source="gOO0u-Aua9ofZ5WGJMhY-2" target="gOO0u-Aua9ofZ5WGJMhY-5">
          <mxGeometry width="50" height="50" relative="1" as="geometry">
            <mxPoint x="200" y="330" as="sourcePoint" />
            <mxPoint x="250" y="280" as="targetPoint" />
          </mxGeometry>
        </mxCell>
        <mxCell id="gOO0u-Aua9ofZ5WGJMhY-7" value="Is the guessed letter in the word?" style="rhombus;whiteSpace=wrap;html=1;" vertex="1" parent="WIyWlLk6GJQsqaUBKTNV-1">
          <mxGeometry x="334" y="460" width="160" height="100" as="geometry" />
        </mxCell>
        <mxCell id="gOO0u-Aua9ofZ5WGJMhY-8" value="" style="endArrow=classic;html=1;rounded=0;exitX=0.5;exitY=1;exitDx=0;exitDy=0;entryX=0.5;entryY=0;entryDx=0;entryDy=0;" edge="1" parent="WIyWlLk6GJQsqaUBKTNV-1" source="gOO0u-Aua9ofZ5WGJMhY-5" target="gOO0u-Aua9ofZ5WGJMhY-7">
          <mxGeometry width="50" height="50" relative="1" as="geometry">
            <mxPoint x="390" y="470" as="sourcePoint" />
            <mxPoint x="440" y="420" as="targetPoint" />
          </mxGeometry>
        </mxCell>
        <mxCell id="gOO0u-Aua9ofZ5WGJMhY-9" value="Replace the blank with the letter" style="rounded=1;whiteSpace=wrap;html=1;" vertex="1" parent="WIyWlLk6GJQsqaUBKTNV-1">
          <mxGeometry x="180" y="590" width="120" height="60" as="geometry" />
        </mxCell>
        <mxCell id="gOO0u-Aua9ofZ5WGJMhY-10" value="Draw a part of the man" style="rounded=1;whiteSpace=wrap;html=1;" vertex="1" parent="WIyWlLk6GJQsqaUBKTNV-1">
          <mxGeometry x="530" y="590" width="120" height="60" as="geometry" />
        </mxCell>
        <mxCell id="gOO0u-Aua9ofZ5WGJMhY-11" value="Are all the blanks filled?" style="rhombus;whiteSpace=wrap;html=1;" vertex="1" parent="WIyWlLk6GJQsqaUBKTNV-1">
          <mxGeometry x="180" y="710" width="120" height="80" as="geometry" />
        </mxCell>
        <mxCell id="gOO0u-Aua9ofZ5WGJMhY-12" value="Has the man been filled out?" style="rhombus;whiteSpace=wrap;html=1;" vertex="1" parent="WIyWlLk6GJQsqaUBKTNV-1">
          <mxGeometry x="530" y="710" width="120" height="80" as="geometry" />
        </mxCell>
        <mxCell id="gOO0u-Aua9ofZ5WGJMhY-13" value="" style="endArrow=classic;html=1;rounded=0;exitX=0.5;exitY=1;exitDx=0;exitDy=0;entryX=0.5;entryY=0;entryDx=0;entryDy=0;" edge="1" parent="WIyWlLk6GJQsqaUBKTNV-1" source="gOO0u-Aua9ofZ5WGJMhY-9" target="gOO0u-Aua9ofZ5WGJMhY-11">
          <mxGeometry width="50" height="50" relative="1" as="geometry">
            <mxPoint x="390" y="470" as="sourcePoint" />
            <mxPoint x="440" y="420" as="targetPoint" />
          </mxGeometry>
        </mxCell>
        <mxCell id="gOO0u-Aua9ofZ5WGJMhY-14" value="" style="endArrow=classic;html=1;rounded=0;exitX=1;exitY=0.5;exitDx=0;exitDy=0;entryX=0.5;entryY=0;entryDx=0;entryDy=0;" edge="1" parent="WIyWlLk6GJQsqaUBKTNV-1" source="gOO0u-Aua9ofZ5WGJMhY-7" target="gOO0u-Aua9ofZ5WGJMhY-10">
          <mxGeometry width="50" height="50" relative="1" as="geometry">
            <mxPoint x="520" y="510" as="sourcePoint" />
            <mxPoint x="570" y="460" as="targetPoint" />
            <Array as="points">
              <mxPoint x="590" y="510" />
            </Array>
          </mxGeometry>
        </mxCell>
        <mxCell id="gOO0u-Aua9ofZ5WGJMhY-15" value="" style="endArrow=classic;html=1;rounded=0;exitX=0;exitY=0.5;exitDx=0;exitDy=0;entryX=0.5;entryY=0;entryDx=0;entryDy=0;" edge="1" parent="WIyWlLk6GJQsqaUBKTNV-1" source="gOO0u-Aua9ofZ5WGJMhY-7" target="gOO0u-Aua9ofZ5WGJMhY-9">
          <mxGeometry width="50" height="50" relative="1" as="geometry">
            <mxPoint x="210" y="540" as="sourcePoint" />
            <mxPoint x="260" y="490" as="targetPoint" />
            <Array as="points">
              <mxPoint x="240" y="510" />
            </Array>
          </mxGeometry>
        </mxCell>
        <mxCell id="gOO0u-Aua9ofZ5WGJMhY-16" value="Yes" style="text;html=1;strokeColor=none;fillColor=none;align=center;verticalAlign=middle;whiteSpace=wrap;rounded=0;" vertex="1" parent="WIyWlLk6GJQsqaUBKTNV-1">
          <mxGeometry x="190" y="530" width="60" height="30" as="geometry" />
        </mxCell>
        <mxCell id="gOO0u-Aua9ofZ5WGJMhY-17" value="No" style="text;html=1;strokeColor=none;fillColor=none;align=center;verticalAlign=middle;whiteSpace=wrap;rounded=0;" vertex="1" parent="WIyWlLk6GJQsqaUBKTNV-1">
          <mxGeometry x="590" y="530" width="60" height="30" as="geometry" />
        </mxCell>
        <mxCell id="gOO0u-Aua9ofZ5WGJMhY-18" value="" style="endArrow=classic;html=1;rounded=0;exitX=0.5;exitY=1;exitDx=0;exitDy=0;entryX=0.5;entryY=0;entryDx=0;entryDy=0;" edge="1" parent="WIyWlLk6GJQsqaUBKTNV-1" source="gOO0u-Aua9ofZ5WGJMhY-10" target="gOO0u-Aua9ofZ5WGJMhY-12">
          <mxGeometry width="50" height="50" relative="1" as="geometry">
            <mxPoint x="430" y="740" as="sourcePoint" />
            <mxPoint x="480" y="690" as="targetPoint" />
          </mxGeometry>
        </mxCell>
        <mxCell id="gOO0u-Aua9ofZ5WGJMhY-19" value="Game Over" style="rounded=1;whiteSpace=wrap;html=1;" vertex="1" parent="WIyWlLk6GJQsqaUBKTNV-1">
          <mxGeometry x="354" y="860" width="120" height="60" as="geometry" />
        </mxCell>
        <mxCell id="gOO0u-Aua9ofZ5WGJMhY-20" value="" style="endArrow=classic;html=1;rounded=0;exitX=0.5;exitY=1;exitDx=0;exitDy=0;entryX=0;entryY=0.5;entryDx=0;entryDy=0;" edge="1" parent="WIyWlLk6GJQsqaUBKTNV-1" source="gOO0u-Aua9ofZ5WGJMhY-11" target="gOO0u-Aua9ofZ5WGJMhY-19">
          <mxGeometry width="50" height="50" relative="1" as="geometry">
            <mxPoint x="250" y="870" as="sourcePoint" />
            <mxPoint x="300" y="820" as="targetPoint" />
            <Array as="points">
              <mxPoint x="240" y="890" />
            </Array>
          </mxGeometry>
        </mxCell>
        <mxCell id="gOO0u-Aua9ofZ5WGJMhY-21" value="" style="endArrow=classic;html=1;rounded=0;exitX=0.5;exitY=1;exitDx=0;exitDy=0;entryX=1;entryY=0.5;entryDx=0;entryDy=0;" edge="1" parent="WIyWlLk6GJQsqaUBKTNV-1" source="gOO0u-Aua9ofZ5WGJMhY-12" target="gOO0u-Aua9ofZ5WGJMhY-19">
          <mxGeometry width="50" height="50" relative="1" as="geometry">
            <mxPoint x="620" y="860" as="sourcePoint" />
            <mxPoint x="670" y="810" as="targetPoint" />
            <Array as="points">
              <mxPoint x="590" y="890" />
            </Array>
          </mxGeometry>
        </mxCell>
        <mxCell id="gOO0u-Aua9ofZ5WGJMhY-22" value="Yes" style="text;html=1;strokeColor=none;fillColor=none;align=center;verticalAlign=middle;whiteSpace=wrap;rounded=0;" vertex="1" parent="WIyWlLk6GJQsqaUBKTNV-1">
          <mxGeometry x="190" y="850" width="60" height="30" as="geometry" />
        </mxCell>
        <mxCell id="gOO0u-Aua9ofZ5WGJMhY-23" value="Yes" style="text;html=1;strokeColor=none;fillColor=none;align=center;verticalAlign=middle;whiteSpace=wrap;rounded=0;" vertex="1" parent="WIyWlLk6GJQsqaUBKTNV-1">
          <mxGeometry x="590" y="850" width="60" height="30" as="geometry" />
        </mxCell>
        <mxCell id="gOO0u-Aua9ofZ5WGJMhY-24" value="" style="endArrow=classic;html=1;rounded=0;exitX=0;exitY=0.5;exitDx=0;exitDy=0;entryX=0;entryY=0.5;entryDx=0;entryDy=0;" edge="1" parent="WIyWlLk6GJQsqaUBKTNV-1" source="gOO0u-Aua9ofZ5WGJMhY-11" target="gOO0u-Aua9ofZ5WGJMhY-5">
          <mxGeometry width="50" height="50" relative="1" as="geometry">
            <mxPoint x="390" y="670" as="sourcePoint" />
            <mxPoint x="440" y="620" as="targetPoint" />
            <Array as="points">
              <mxPoint x="100" y="750" />
              <mxPoint x="100" y="380" />
            </Array>
          </mxGeometry>
        </mxCell>
        <mxCell id="gOO0u-Aua9ofZ5WGJMhY-25" value="No" style="text;html=1;strokeColor=none;fillColor=none;align=center;verticalAlign=middle;whiteSpace=wrap;rounded=0;" vertex="1" parent="WIyWlLk6GJQsqaUBKTNV-1">
          <mxGeometry x="120" y="760" width="60" height="30" as="geometry" />
        </mxCell>
        <mxCell id="gOO0u-Aua9ofZ5WGJMhY-26" value="No" style="text;html=1;strokeColor=none;fillColor=none;align=center;verticalAlign=middle;whiteSpace=wrap;rounded=0;" vertex="1" parent="WIyWlLk6GJQsqaUBKTNV-1">
          <mxGeometry x="640" y="760" width="60" height="30" as="geometry" />
        </mxCell>
        <mxCell id="gOO0u-Aua9ofZ5WGJMhY-27" value="" style="endArrow=classic;html=1;rounded=0;exitX=1;exitY=0.5;exitDx=0;exitDy=0;entryX=1;entryY=0.5;entryDx=0;entryDy=0;" edge="1" parent="WIyWlLk6GJQsqaUBKTNV-1" source="gOO0u-Aua9ofZ5WGJMhY-12" target="gOO0u-Aua9ofZ5WGJMhY-5">
          <mxGeometry width="50" height="50" relative="1" as="geometry">
            <mxPoint x="730" y="550" as="sourcePoint" />
            <mxPoint x="780" y="500" as="targetPoint" />
            <Array as="points">
              <mxPoint x="720" y="750" />
              <mxPoint x="720" y="380" />
            </Array>
          </mxGeometry>
        </mxCell>
      </root>
    </mxGraphModel>
  </diagram>
</mxfile>
